<svg width="648" height="193" viewBox="0 0 648 193" fill="none" xmlns="http://www.w3.org/2000/svg">
<path d="M270.62 151.485H249.016V86.8049L211.004 148.228C210.069 149.794 208.75 150.98 207.046 151.788C205.397 152.596 203.61 153 201.686 153C199.817 153 198.058 152.596 196.409 151.788C194.815 150.98 193.551 149.794 192.616 148.228L154.439 86.8049V151.485H133V51.2837C133 49.0116 133.715 46.9919 135.144 45.2246C136.628 43.4574 138.552 42.2709 140.916 41.665C142.07 41.4125 143.225 41.3368 144.379 41.4377C145.533 41.4882 146.633 41.7154 147.677 42.1194C148.777 42.4728 149.766 43.003 150.646 43.7099C151.525 44.3663 152.267 45.1742 152.872 46.1335L201.686 124.068L250.501 46.1335C251.765 44.2148 253.496 42.8515 255.695 42.0436C257.949 41.2358 260.285 41.1095 262.704 41.665C265.013 42.2709 266.909 43.4574 268.394 45.2246C269.878 46.9919 270.62 49.0116 270.62 51.2837V151.485Z" fill="#574AE2"/>
<path d="M384.74 124.371C384.74 127.098 384.218 130.051 383.173 133.232C382.129 136.363 380.425 139.291 378.061 142.018C375.752 144.694 372.701 146.941 368.908 148.759C365.17 150.576 360.607 151.485 355.22 151.485H316.548C313.58 151.485 310.364 151.006 306.901 150.046C303.493 149.087 300.304 147.547 297.336 145.426C294.422 143.255 291.976 140.453 289.997 137.019C288.018 133.535 287.029 129.319 287.029 124.371C287.029 121.644 287.551 118.691 288.595 115.51C289.64 112.329 291.317 109.4 293.625 106.724C295.989 103.997 299.04 101.725 302.778 99.9076C306.571 98.0899 311.161 97.181 316.548 97.181H355.22V115.964H316.548C313.635 115.964 311.381 116.797 309.787 118.463C308.193 120.079 307.396 122.099 307.396 124.522C307.396 127.098 308.303 129.117 310.117 130.582C311.986 131.995 314.184 132.702 316.713 132.702H355.22C358.134 132.702 360.388 131.894 361.982 130.279C363.576 128.663 364.373 126.643 364.373 124.22V96.7266C364.373 94.1515 363.493 92.1065 361.734 90.5918C360.03 89.077 357.859 88.3196 355.22 88.3196H308.138V69.6123H355.22C358.189 69.6123 361.377 70.092 364.785 71.0513C368.248 72.0107 371.437 73.576 374.35 75.7471C377.319 77.8678 379.792 80.6701 381.771 84.154C383.75 87.5875 384.74 91.7783 384.74 96.7266V124.371Z" fill="#574AE2"/>
<path d="M481.049 89.3042H432.812C429.898 89.3042 427.7 89.9859 426.215 91.3492C424.731 92.662 423.989 94.6059 423.989 97.181V151.485H402.55V97.181C402.55 93.798 403.018 90.7685 403.952 88.0924C404.887 85.4163 406.124 83.0685 407.663 81.0488C409.257 78.9786 411.071 77.2366 413.105 75.8228C415.139 74.3586 417.255 73.172 419.454 72.2632C421.708 71.3543 423.962 70.6979 426.215 70.294C428.524 69.8395 430.668 69.6123 432.647 69.6123H481.049V89.3042Z" fill="#574AE2"/>
<path d="M517 52.7985H495.561V35H517V52.7985ZM517 151.485H495.561V69.6123H517V151.485Z" fill="#574AE2"/>
<path d="M648 105.771C648 107.419 647.669 108.975 647.008 110.439C646.346 111.904 645.42 113.185 644.229 114.284C643.105 115.321 641.749 116.175 640.161 116.846C638.64 117.457 636.986 117.762 635.2 117.762C631.826 117.762 629.213 118.555 627.361 120.142C625.575 121.728 624.682 124.138 624.682 127.372L624.88 159.408C624.88 163.497 624.252 167.158 622.995 170.392C621.738 173.626 620.051 176.494 617.934 178.996C615.817 181.498 613.37 183.633 610.591 185.403C607.879 187.173 605.002 188.607 601.959 189.705C598.982 190.864 595.939 191.688 592.83 192.176C589.787 192.725 586.909 193 584.197 193H571.397L571.198 168.927H584.197C585.057 168.927 586.314 168.866 587.968 168.744C589.622 168.561 591.242 168.165 592.83 167.554C594.484 166.883 595.906 165.937 597.097 164.717C598.287 163.436 598.883 161.727 598.883 159.591V127.189C598.883 123.894 599.478 120.355 600.669 116.572C601.926 112.789 603.877 109.249 606.523 105.954C604.208 103.33 602.29 100.249 600.768 96.7096C599.313 93.1094 598.585 88.96 598.585 84.2614V52.1341V51.9511C598.254 50.2425 597.626 48.8085 596.7 47.6491C595.84 46.4897 594.748 45.5439 593.425 44.8117C592.102 44.0794 590.614 43.5608 588.96 43.2557C587.372 42.9506 585.719 42.798 583.999 42.798H571V19H583.999C589.357 19 594.484 19.7933 599.379 21.3798C604.274 22.9053 608.574 25.1326 612.278 28.0615C616.049 30.9295 619.026 34.4077 621.209 38.4961C623.392 42.5234 624.483 47.0084 624.483 51.9511C624.483 52.3782 624.516 55.2767 624.582 60.6465C624.649 65.9553 624.682 73.8269 624.682 84.2614C624.682 87.3735 625.542 89.7533 627.262 91.4008C628.982 92.9874 631.628 93.7806 635.2 93.7806C636.986 93.8417 638.64 94.2078 640.161 94.879C641.749 95.4892 643.105 96.3435 644.229 97.4419C645.42 98.4792 646.346 99.7301 647.008 101.195C647.669 102.598 648 104.124 648 105.771Z" fill="#574AE2"/>
<path d="M527 172.731C527 171.462 527 171.775 527 171.034C527 170.21 527 169.127 527 167.654C532.965 167.654 536.348 165.101 536.348 159.416C536.348 157.356 535.19 156.202 532.876 155.955C529.493 155.708 527.801 153.689 527.801 149.899C527.801 147.015 528.513 144.831 529.938 143.348C531.451 141.783 534.122 141 537.95 141C543.203 141 545.829 144.296 545.829 150.888C545.829 157.479 544.405 163 541.556 167.449C538.707 171.816 533.41 172.731 527 172.731ZM551.839 174C551.393 172.764 551.171 171.775 551.171 171.034C551.171 170.21 551.304 169.18 551.571 167.944C557.536 167.944 560.519 165.101 560.519 159.416C560.519 157.356 559.361 156.202 557.047 155.955C553.664 155.708 551.972 153.689 551.972 149.899C551.972 147.015 552.684 144.831 554.109 143.348C555.622 141.783 558.293 141 562.121 141C567.374 141 570 144.296 570 150.888C570 157.479 568.576 163 565.727 167.449C562.878 171.816 558.248 174 551.839 174Z" fill="#574AE2"/>
<path d="M77 29.798H64.1997C62.546 29.798 60.826 29.9811 59.0399 30.3472C57.32 30.6523 55.7324 31.171 54.2771 31.9032C52.8217 32.6355 51.631 33.5813 50.7049 34.7407C49.7788 35.9001 49.3157 37.3035 49.3157 38.9511V39.1341V71.2614C49.3157 75.96 48.5881 80.1094 47.1327 83.7096C45.6774 87.2488 43.7921 90.3303 41.4768 92.9542C44.2552 96.2493 46.2066 99.7885 47.3312 103.572C48.5219 107.355 49.1173 110.894 49.1173 114.189V146.591C49.1173 148.727 49.7126 150.436 50.9034 151.717C52.0941 152.937 53.5163 153.883 55.1701 154.554C56.8239 155.165 58.4777 155.561 60.1314 155.744C61.7852 155.866 63.0752 155.927 64.0013 155.927H76.8015V180H63.8028C61.0906 180 58.18 179.725 55.0709 179.176C52.0279 178.688 48.985 177.864 45.942 176.705C42.9652 175.607 40.0876 174.173 37.3093 172.403C34.5971 170.633 32.1826 168.498 30.0657 165.996C28.015 163.494 26.3613 160.626 25.1044 157.392C23.9137 154.158 23.3183 150.497 23.3183 146.408V114.372C23.3183 111.138 22.3922 108.728 20.5399 107.142C18.7539 105.555 16.2401 104.762 12.9987 104.762C11.1465 104.762 9.42655 104.457 7.83892 103.846C6.25129 103.175 4.86211 102.321 3.67139 101.284C2.54682 100.185 1.65378 98.9037 0.992268 97.4392C0.330756 95.9748 0 94.4187 0 92.7712C0 91.1236 0.330756 89.5981 0.992268 88.1946C1.65378 86.7301 2.54682 85.4792 3.67139 84.4419C4.86211 83.3435 6.21821 82.4892 7.73969 81.879C9.32732 81.2078 11.0142 80.8417 12.8003 80.7806C16.3724 80.7806 19.0515 79.9874 20.8376 78.4008C22.6237 76.7533 23.5168 74.3735 23.5168 71.2614V38.9511C23.5168 33.7033 24.6744 29.0352 26.9897 24.9469C29.305 20.8585 32.381 17.4108 36.2178 14.6039C40.0546 11.7969 44.3875 9.66123 49.2165 8.19674C54.1117 6.73225 59.1061 6 64.1997 6H77V29.798Z" fill="#574AE2"/>
<path fill-rule="evenodd" clip-rule="evenodd" d="M118 168L527 168L527 173L118 173L118 168Z" fill="#574AE2"/>
<path fill-rule="evenodd" clip-rule="evenodd" d="M104 168H119V173H104V168Z" fill="#574AE2"/>
<path fill-rule="evenodd" clip-rule="evenodd" d="M104.146 91.0219L103.837 155.741L103.836 155.765L103.832 155.927C103.83 156.034 103.826 156.191 103.821 156.391C103.812 156.791 103.8 157.363 103.787 158.049C103.762 159.424 103.736 161.252 103.731 163.078C103.726 164.839 103.742 166.567 103.796 167.876H111V173H101.281C99.7118 173 98.9442 171.974 98.7942 171.761C98.5649 171.435 98.4576 171.129 98.4129 170.992C98.311 170.681 98.2575 170.357 98.2246 170.12C98.1535 169.607 98.108 168.945 98.0766 168.238C98.0126 166.801 97.9959 164.915 98.0008 163.066C98.0056 161.208 98.0324 159.353 98.0578 157.965C98.0705 157.271 98.083 156.692 98.0922 156.286C98.0969 156.083 98.1007 155.924 98.1034 155.815L98.107 155.67L98.4155 91L104.146 91.0219Z" fill="#574AE2"/>
<path fill-rule="evenodd" clip-rule="evenodd" d="M530 26H515V21H530V26Z" fill="#574AE2"/>
<path d="M98.2733 21C98.7702 22.161 99.0186 23.1286 99.0186 23.9026C99.0186 24.5993 98.8696 25.5281 98.5714 26.6891C91.913 26.6891 88.5839 29.3596 88.5839 34.7004C88.5839 36.6355 89.8758 37.7191 92.4596 37.9513C96.236 38.1835 98.1242 40.0799 98.1242 43.6405C98.1242 46.3496 97.2795 48.4394 95.5901 49.9101C94 51.3034 91.0683 52 86.795 52C80.9317 52 78 48.9039 78 42.7116C78 36.5194 79.5901 31.372 82.7702 27.2697C85.9503 23.0899 91.118 21 98.2733 21ZM126 21C126 22.24 126 23.1286 126 23.9026C126 24.5993 126 24.76 126 26C119.342 26 115.565 29.3596 115.565 34.7004C115.565 36.6355 116.857 37.7191 119.441 37.9513C123.217 38.1835 125.106 40.0799 125.106 43.6405C125.106 46.3496 124.261 48.4394 122.571 49.9101C120.981 51.3034 118.05 52 113.776 52C107.913 52 104.981 48.9039 104.981 42.7116C104.981 36.5194 106.571 31.372 109.752 27.2697C112.932 23.0899 118.845 21 126 21Z" fill="#574AE2"/>
<path fill-rule="evenodd" clip-rule="evenodd" d="M522 26L126 26L126 21L522 21L522 26Z" fill="#574AE2"/>
<path fill-rule="evenodd" clip-rule="evenodd" d="M544 26H529V21H544V26Z" fill="#574AE2"/>
<path fill-rule="evenodd" clip-rule="evenodd" d="M550.326 102.978L550.611 38.2591L550.612 38.2346L550.615 38.0728C550.618 37.9661 550.621 37.8092 550.626 37.6093C550.634 37.2093 550.645 36.6373 550.657 35.9507C550.68 34.5762 550.704 32.7476 550.709 30.9224C550.713 29.1609 550.699 27.4325 550.649 26.1243H544V21H552.971C554.42 21 555.129 22.0264 555.267 22.2392C555.479 22.5647 555.578 22.8716 555.619 23.0081C555.713 23.3193 555.762 23.643 555.793 23.8797C555.858 24.3927 555.9 25.0553 555.929 25.7622C555.988 27.1993 556.004 29.0848 555.999 30.9344C555.995 32.7922 555.97 34.6467 555.947 36.0346C555.935 36.7291 555.923 37.3081 555.915 37.7138C555.911 37.9167 555.907 38.0763 555.905 38.1855L555.901 38.3295L555.617 103L550.326 102.978Z" fill="#574AE2"/>
</svg>
